<?xml version="1.0" encoding="utf-8"?>
<!-- Svg Vector Icons : http://www.onlinewebfonts.com/icon -->
<!DOCTYPE svg PUBLIC "-//W3C//DTD SVG 1.1//EN" "http://www.w3.org/Graphics/SVG/1.1/DTD/svg11.dtd">
<svg version="1.1" xmlns="http://www.w3.org/2000/svg" xmlns:xlink="http://www.w3.org/1999/xlink" x="0px" y="0px" viewBox="0 0 256 256" enable-background="new 0 0 256 256" xml:space="preserve">
<metadata> Svg Vector Icons : http://www.onlinewebfonts.com/icon </metadata>
<g><g><g><path fill="#000000" d="M122.2,33c-12.6,2.3-23,11.3-27.1,23.4c-1.7,5-2,12.4-0.9,17.6c2.1,9.5,8.3,18.1,16.6,22.8c2.8,1.6,7.9,3.5,10.9,4l1.9,0.3v26.7v26.7l-3.6,0.8c-9.5,2.2-18,8.8-22.6,17.4c-1.7,3.2-3.5,8.7-3.5,10.5v1.1h-8h-8l-0.6-2.9c-2.3-11.1-10.8-20.9-21.7-24.9c-5.7-2.1-11.3-2.6-17-1.7c-13.1,2.2-23.1,10.7-27.5,23.2c-1.2,3.4-1.3,4.2-1.3,10.7c0,6.3,0.1,7.3,1.3,10.7c1.8,5.4,4.2,9.2,8.7,13.7c6.1,6.1,13.4,9.5,22,10.1c9.8,0.6,18.9-2.9,26.1-10.1c5.1-5,8.2-10.9,9.5-17.1l0.5-2.7l7.8,0.1l7.9,0.1l0.8,3.3c2.3,9.8,9.2,18.3,18.3,22.9c5.4,2.6,8.8,3.4,15.1,3.4c6.3,0,9.7-0.7,15.1-3.4c9.1-4.5,16-13.1,18.3-22.8l0.8-3.4l7.9-0.1l7.8-0.1l0.5,2.7c1.2,6.3,4.4,12.1,9.4,17.1c5.3,5.3,10.8,8.2,18.2,9.6c16.4,3.1,33.1-6.9,38.6-23.3c1.5-4.4,2-12.4,1.1-17c-2.7-14.2-13.9-25-28.5-27.5c-17.2-2.9-34.7,8.8-38.5,25.8l-0.8,3.6h-7.9h-7.9l-0.5-2.7c-1.2-6-4.4-12.1-9-16.7c-5-5-10-7.9-16.9-9.6l-3-0.7v-26.8v-26.7l2.3-0.5c3.8-0.8,8.2-2.7,11.8-5c14.9-9.6,19.9-28.9,11.6-44.7c-4.3-8.2-11.7-14.3-20.8-17.1C133.7,32.8,125.8,32.3,122.2,33z M51.1,164.4c10.6,3.1,18.4,13.4,18.4,24.5c0,11.9-8.6,22.6-20.2,25c-4.3,0.9-7.2,0.9-11.4-0.2c-5-1.3-7.8-2.9-11.7-6.7c-5.2-5.1-7.6-10.8-7.6-18.1c0-7.1,2.4-12.8,7.4-17.9c3.4-3.4,7.9-6,12-6.9c1.4-0.3,3-0.6,3.5-0.7C43,163.1,48.5,163.6,51.1,164.4z M135,164.4c10.7,3.1,18.4,13.3,18.4,24.3c0,7.2-2.5,13.2-7.6,18.2c-10.2,10.1-25.6,10.1-35.7,0c-8-8-9.9-19.5-4.8-29.7c3.5-7,10.6-12.2,18.6-13.6C126.8,163.1,131.8,163.4,135,164.4z M218.2,164.2c3.9,1,8.4,3.6,11.6,6.8c5,5.1,7.4,10.8,7.4,17.9c0,7.3-2.4,12.9-7.6,18.1c-3.8,3.8-6.7,5.5-11.7,6.7c-6.1,1.6-11.9,0.9-17.7-1.9c-3.8-1.9-8.6-6.4-10.7-10.1c-1.9-3.3-3.3-8.9-3.3-12.6c0-8.2,4.5-16.6,11.1-21.1C203.7,163.6,210.8,162.4,218.2,164.2z"/></g></g></g>
</svg>