<?xml version="1.0" encoding="utf-8"?>
<!-- Svg Vector Icons : http://www.onlinewebfonts.com/icon -->
<!DOCTYPE svg PUBLIC "-//W3C//DTD SVG 1.1//EN" "http://www.w3.org/Graphics/SVG/1.1/DTD/svg11.dtd">
<svg version="1.1" xmlns="http://www.w3.org/2000/svg" xmlns:xlink="http://www.w3.org/1999/xlink" x="0px" y="0px" viewBox="0 0 256 256" enable-background="new 0 0 256 256" xml:space="preserve">
<metadata> Svg Vector Icons : http://www.onlinewebfonts.com/icon </metadata>
<g><g><path fill="#000000" d="M73.2,19.3c-11.9,0-21.5,9.6-21.5,21.5V68h-6.5c-11.9,0-21.5,9.6-21.5,21.5c0,11.9,9.6,21.5,21.5,21.5h6.5V160c0,47.3,38.3,85.8,85.6,86h21.8c11.9,0,21.5-9.6,21.5-21.5c0-11.9-9.6-21.5-21.5-21.5h-21.5c-23.7,0-43-19.2-43-43v-49h48h2.9c11.9,0,18.6-9.6,18.6-21.5c0-11.9-9.6-21.5-21.5-21.5h-48V40.8C94.7,28.9,85.1,19.3,73.2,19.3z"/><path fill="#000000" d="M167.8,53c11.9,0,21.5,9.6,21.5,21.5c0,3.9,3.2,7.2,7.2,7.2c3.9,0,7.2-3.2,7.2-7.2c0-19.8-16-35.8-35.8-35.8c-4,0-7.2,3.2-7.2,7.2S163.8,53,167.8,53L167.8,53z"/><path fill="#000000" d="M167.8,10c-4,0-7.2,3.2-7.2,7.2s3.2,7.2,7.2,7.2c27.7,0,50.1,22.4,50.1,50.1c0,4,3.2,7.2,7.2,7.2c4,0,7.2-3.2,7.2-7.2C232.2,38.9,203.4,10,167.8,10z"/></g></g>
</svg>